<svg width="714" height="406" viewBox="0 0 714 406" fill="none" xmlns="http://www.w3.org/2000/svg">
<path fill-rule="evenodd" clip-rule="evenodd" d="M135.998 0.199982C157.598 0.199982 166.398 17 166.398 36.2C166.398 81.4 101.998 151 59.9984 193.8C57.5984 203 54.7984 224.2 54.7984 230.6C54.7984 245.8 55.5984 251.4 58.7984 251.4C65.5984 251.4 88.7984 227 110.398 204.2C111.616 202.889 112.745 201.666 113.813 200.51L113.818 200.505L113.819 200.503C115.799 198.359 117.566 196.446 119.283 194.632C129.097 151.21 167.618 123 195.336 123C218.936 123 234.536 140.6 234.536 161.8C234.536 203.4 190.536 221.4 153.736 225.8C155.336 235.4 159.736 244.6 170.536 244.6C194.136 244.6 229.736 213 245.736 197L252.136 190.6C253.316 189.42 254.53 188.449 255.77 187.666C271.527 160.568 298.196 138.6 329.042 138.6C341.842 138.6 353.042 143.4 361.842 151.8C362.376 151.133 362.864 150.422 363.353 149.711C364.331 148.289 365.309 146.867 366.642 145.8C370.242 142.6 373.842 141.4 377.842 141.4C387.442 141.4 396.642 150.2 396.642 159.8C396.642 163 395.442 166.6 393.042 170.2C383.042 185.4 371.442 206.6 367.442 219C366.642 221.8 365.842 225 365.842 227.8C365.842 230.6 366.642 232.6 368.642 232.6C369.842 232.6 371.042 232.2 372.642 231C380.508 224.773 388.643 216.129 395.945 208.368L395.946 208.368L395.947 208.367L395.95 208.364C397.558 206.655 399.126 204.988 400.642 203.4L405.512 198.373C405.904 197.911 406.327 197.453 406.78 197L408.78 195L413.042 190.6C413.532 190.11 414.028 189.656 414.529 189.237C422.841 180.765 437.423 164.628 448.78 151C457.18 141 465.98 136.2 472.78 136.2C479.18 136.2 495.18 139.8 495.18 157.8C495.18 158.698 494.927 160.101 494.635 161.726L494.635 161.726C494.407 162.994 494.155 164.397 493.98 165.8L506.78 152.6C519.18 141.4 534.38 129.8 551.98 129.8C576.78 129.8 592.78 148.6 592.78 171C592.78 174.116 592.621 177.303 592.295 180.558C590.094 196.354 582.282 218.803 568.224 238.99C569.345 238.618 570.476 238.227 571.617 237.817C594.977 229.411 623.454 212.162 658.549 174.423C664.943 167.548 675.699 167.157 682.575 173.551C689.45 179.945 689.841 190.701 683.447 197.577C645.542 238.338 612.686 259.173 583.129 269.808C557.39 279.07 534.9 280.2 517.082 281.094C514.633 281.217 512.273 281.336 510.005 281.47C508.996 281.53 508.002 281.501 507.031 281.389C490.685 281.114 474.501 275.783 464.38 260.6C445.58 312.2 424.38 366.2 418.38 377.4C411.58 390.2 400.38 405.8 383.98 405.8C362.38 405.8 359.18 383.4 359.18 375.8C359.18 345 396.78 285 436.38 233C439.58 222.6 441.98 215.4 443.18 211.8L432.38 222.6C431.861 223.118 431.337 223.596 430.807 224.036L422.642 232.2C406.242 248.6 383.442 271.4 363.842 271.4C347.042 271.4 336.642 261.8 334.642 246.6C315.442 267.4 295.042 283 276.642 283C255.741 283 244.499 267.657 241.482 249.424C220.089 266.28 194.968 280.6 170.536 280.6C145.004 280.6 129.1 265.197 121.753 244.81C102.944 265.004 79.2803 287.8 57.5984 287.8C27.5984 287.8 18.7984 258.6 18.7984 233V228.2C9.19844 228.2 0.398438 219.4 0.398438 209.8C0.398438 205.4 1.99844 201 5.99844 197L12.3984 190.6C13.7512 189.247 15.2553 187.781 16.8757 186.201L16.8772 186.2L16.8774 186.2L16.8781 186.199C20.5275 182.641 24.7671 178.508 29.1984 173.8C47.1984 103 86.3984 0.199982 135.998 0.199982ZM127.506 49.5217L127.506 49.5215C129.616 44.4285 130.798 41.5753 130.798 40.2C130.798 39.8 130.398 39 129.998 39C128.798 39 125.598 42.6 121.598 48.2C110.398 63.8 98.7984 85.8 85.9984 112.2C103.598 91 119.198 69 126.398 52.2C126.791 51.2472 127.16 50.3572 127.504 49.5267L127.505 49.5242L127.506 49.5217ZM160.136 188.6C178.536 185 198.536 176.6 198.536 161.8C198.536 159.8 198.136 159 195.336 159C180.936 159 167.736 173 160.136 188.6ZM286.242 243.4C303.042 229.8 332.642 197.4 340.242 182.2C337.842 178.2 334.242 174.6 329.042 174.6C305.842 174.6 276.642 208.2 276.642 239C276.642 244.2 277.042 247 279.442 247C281.042 247 283.042 245.8 286.242 243.4ZM508.38 245.4C525.98 245.4 556.78 209 556.78 171C556.78 167 555.18 165.8 551.98 165.8C540.072 165.8 510.074 200.755 496.617 216.437C494.704 218.666 493.125 220.506 491.98 221.8C489.98 223.8 486.78 227.8 482.38 233.4C485.98 234.2 489.58 235.8 493.18 239C497.58 242.6 503.18 245.4 508.38 245.4ZM711.488 102V103.7L695.788 127.5L713.088 153.3V155H692.988L680.488 134.9V155H662.788V85H680.488V121.4L692.088 102H711.488ZM653.398 109.6L632.598 139.3L639.898 139.2H653.798V155H608.598V146.6L628.698 117.5H609.798V102H653.398V109.6Z" fill="white"/>
</svg>
