<svg width="714" height="406" viewBox="0 0 714 406" fill="none" xmlns="http://www.w3.org/2000/svg">
<path fill-rule="evenodd" clip-rule="evenodd" d="M136 0.199982C157.6 0.199982 166.4 17 166.4 36.2C166.4 81.4 102 151 60.0004 193.8C57.6004 203 54.8004 224.2 54.8004 230.6C54.8004 245.8 55.6004 251.4 58.8004 251.4C65.6004 251.4 88.8004 227 110.4 204.2C111.618 202.889 112.747 201.666 113.815 200.51L113.82 200.505L113.821 200.503C115.801 198.359 117.568 196.446 119.285 194.632C129.099 151.21 167.62 123 195.338 123C218.938 123 234.538 140.6 234.538 161.8C234.538 203.4 190.538 221.4 153.738 225.8C155.338 235.4 159.738 244.6 170.538 244.6C194.138 244.6 229.738 213 245.738 197L252.138 190.6C253.318 189.42 254.532 188.449 255.772 187.666C271.529 160.568 298.198 138.6 329.044 138.6C341.844 138.6 353.044 143.4 361.844 151.8C362.377 151.133 362.866 150.422 363.355 149.711C364.333 148.289 365.311 146.867 366.644 145.8C370.244 142.6 373.844 141.4 377.844 141.4C387.444 141.4 396.644 150.2 396.644 159.8C396.644 163 395.444 166.6 393.044 170.2C383.044 185.4 371.444 206.6 367.444 219C366.644 221.8 365.844 225 365.844 227.8C365.844 230.6 366.644 232.6 368.644 232.6C369.844 232.6 371.044 232.2 372.644 231C380.51 224.773 388.645 216.129 395.947 208.368L395.948 208.368L395.949 208.367L395.952 208.364C397.56 206.655 399.128 204.988 400.644 203.4L405.514 198.373C405.906 197.911 406.329 197.453 406.782 197L408.782 195L413.044 190.6C413.534 190.11 414.03 189.656 414.531 189.237C422.843 180.765 437.425 164.628 448.782 151C457.182 141 465.982 136.2 472.782 136.2C479.182 136.2 495.182 139.8 495.182 157.8C495.182 158.698 494.929 160.101 494.637 161.726L494.637 161.726C494.409 162.994 494.157 164.397 493.982 165.8L506.782 152.6C519.182 141.4 534.382 129.8 551.982 129.8C576.782 129.8 592.782 148.6 592.782 171C592.782 174.116 592.623 177.303 592.297 180.558C590.096 196.354 582.284 218.803 568.226 238.99C569.347 238.618 570.478 238.227 571.619 237.817C594.979 229.411 623.456 212.162 658.551 174.423C664.945 167.548 675.701 167.157 682.577 173.551C689.452 179.945 689.843 190.701 683.449 197.577C645.544 238.338 612.688 259.173 583.131 269.808C557.392 279.07 534.902 280.2 517.083 281.094C514.635 281.217 512.275 281.336 510.007 281.47C508.998 281.53 508.004 281.501 507.033 281.389C490.687 281.114 474.503 275.783 464.382 260.6C445.582 312.2 424.382 366.2 418.382 377.4C411.582 390.2 400.382 405.8 383.982 405.8C362.382 405.8 359.182 383.4 359.182 375.8C359.182 345 396.782 285 436.382 233C439.582 222.6 441.982 215.4 443.182 211.8L432.382 222.6C431.863 223.118 431.339 223.596 430.809 224.036L422.644 232.2C406.244 248.6 383.444 271.4 363.844 271.4C347.044 271.4 336.644 261.8 334.644 246.6C315.444 267.4 295.044 283 276.644 283C255.743 283 244.501 267.657 241.484 249.424C220.091 266.28 194.969 280.6 170.538 280.6C145.006 280.6 129.102 265.197 121.755 244.81C102.946 265.004 79.2823 287.8 57.6004 287.8C27.6004 287.8 18.8004 258.6 18.8004 233V228.2C9.20039 228.2 0.400391 219.4 0.400391 209.8C0.400391 205.4 2.00039 201 6.00039 197L12.4004 190.6C13.7532 189.247 15.2573 187.781 16.8777 186.201L16.8791 186.2L16.8793 186.2L16.88 186.199C20.5295 182.641 24.7691 178.508 29.2004 173.8C47.2004 103 86.4004 0.199982 136 0.199982ZM127.508 49.5217L127.508 49.5215C129.618 44.4285 130.8 41.5753 130.8 40.2C130.8 39.8 130.4 39 130 39C128.8 39 125.6 42.6 121.6 48.2C110.4 63.8 98.8004 85.8 86.0004 112.2C103.6 91 119.2 69 126.4 52.2C126.793 51.2472 127.162 50.3572 127.506 49.5267L127.507 49.5242L127.508 49.5217ZM160.138 188.6C178.538 185 198.538 176.6 198.538 161.8C198.538 159.8 198.138 159 195.338 159C180.938 159 167.738 173 160.138 188.6ZM286.244 243.4C303.044 229.8 332.644 197.4 340.244 182.2C337.844 178.2 334.244 174.6 329.044 174.6C305.844 174.6 276.644 208.2 276.644 239C276.644 244.2 277.044 247 279.444 247C281.044 247 283.044 245.8 286.244 243.4ZM508.382 245.4C525.982 245.4 556.782 209 556.782 171C556.782 167 555.182 165.8 551.982 165.8C540.074 165.8 510.076 200.755 496.619 216.437C494.706 218.666 493.127 220.506 491.982 221.8C489.982 223.8 486.782 227.8 482.382 233.4C485.982 234.2 489.582 235.8 493.182 239C497.582 242.6 503.182 245.4 508.382 245.4ZM711.49 102V103.7L695.79 127.5L713.09 153.3V155H692.99L680.49 134.9V155H662.79V85H680.49V121.4L692.09 102H711.49ZM653.4 109.6L632.6 139.3L639.9 139.2H653.8V155H608.6V146.6L628.7 117.5H609.8V102H653.4V109.6Z" fill="url(#paint0_linear_2_146)"/>
<defs>
<linearGradient id="paint0_linear_2_146" x1="-33" y1="232.5" x2="704.691" y2="201.311" gradientUnits="userSpaceOnUse">
<stop stop-color="#6A44FF"/>
<stop offset="0.398199" stop-color="#2545F0"/>
<stop offset="0.883193" stop-color="#44FFA5"/>
</linearGradient>
</defs>
</svg>
